<svg xmlns="http://www.w3.org/2000/svg" width="38" height="29" viewBox="0 0 38 29">
    <path fill="#00522D" fill-rule="evenodd" d="M2 8.85L2.726 0h1.726L6.19 4.375c.2.524.45 1.297.45 1.297h.026s.238-.773.438-1.297L8.842 0h1.727l.713 8.85H9.68l-.375-4.948c-.037-.586-.012-1.372-.012-1.372h-.025s-.263.86-.476 1.372L7.354 7.33H5.94L4.514 3.902a21.576 21.576 0 0 1-.488-1.384h-.025s.025.798-.012 1.384L3.614 8.85H2zm11.258 0V0h5.316v1.384h-3.702v2.318h2.99v1.384h-2.99v2.38h3.902V8.85h-5.516zm7.193 0V0h1.613l3.365 5.11c.338.512.738 1.372.738 1.372h.025s-.087-.848-.087-1.371V0h1.6v8.85h-1.6L22.74 3.752c-.338-.511-.738-1.371-.738-1.371h-.025s.087.848.087 1.371V8.85h-1.613zm9.381-3.178V0h1.614v5.672c0 1.184.776 1.857 1.964 1.857s1.976-.673 1.976-1.87V0H37v5.672C37 7.654 35.561 9 33.422 9c-2.151 0-3.59-1.346-3.59-3.328zM0 18c0-.552.453-1 .997-1h36.006c.55 0 .997.444.997 1 0 .552-.453 1-.997 1H.997A.996.996 0 0 1 0 18zm0 10c0-.552.453-1 .997-1h36.006c.55 0 .997.444.997 1 0 .552-.453 1-.997 1H.997A.996.996 0 0 1 0 28z"/>
</svg>
